<svg width="108" height="108" viewBox="0 0 108 108" fill="none" xmlns="http://www.w3.org/2000/svg">
<path d="M26.8729 81.3965C28.1641 85.2317 33.2444 86.0361 35.6415 82.776C41.1298 75.312 44.3938 65.9616 44.3938 55.8125C44.3938 31.8605 26.2153 12.3542 3.51798 11.6006C3.45078 11.5987 3.40182 11.664 3.42294 11.7283L26.8729 81.3965Z" fill="url(#paint0_linear_23823_134726)"/>
<path d="M70.1264 81.3965C68.8352 85.2317 63.7549 86.0361 61.3578 82.776C55.8695 75.312 52.6055 65.9616 52.6055 55.8125C52.6055 31.8605 70.784 12.3542 93.4813 11.6006C93.5485 11.5987 93.5975 11.664 93.5763 11.7283L70.1264 81.3965Z" fill="url(#paint1_linear_23823_134726)"/>
<defs>
<linearGradient id="paint0_linear_23823_134726" x1="8.55793" y1="58.7671" x2="36.8187" y2="29.0972" gradientUnits="userSpaceOnUse">
<stop stop-color="#915EFF"/>
<stop offset="1" stop-color="#5948AA"/>
</linearGradient>
<linearGradient id="paint1_linear_23823_134726" x1="88.4414" y1="58.7671" x2="60.1806" y2="29.0972" gradientUnits="userSpaceOnUse">
<stop stop-color="#915EFF"/>
<stop offset="1" stop-color="#5948AA"/>
</linearGradient>
</defs>
</svg>
